<svg width="38" height="36" viewBox="0 0 38 36" fill="none" xmlns="http://www.w3.org/2000/svg">
<g clip-path="url(#clip0_171_1012)">
<path d="M37.9997 6.65275C37.8766 7.36874 37.7447 8.08399 37.6333 8.80144C37.2297 11.3551 36.8291 13.9098 36.4314 16.4655C36.1522 18.2411 35.8803 20.0168 35.5879 21.7903C35.2523 23.8202 33.308 25.1833 31.281 24.8543C28.7762 24.4476 26.2684 24.0628 23.7613 23.67C23.6536 23.6539 23.5415 23.6554 23.3678 23.6451V24.1126C23.3678 26.7509 23.3678 29.3913 23.3678 32.0339C23.3678 33.5538 22.7698 34.741 21.4434 35.5215C20.9062 35.8379 20.2933 36.0028 19.6699 35.9986C14.5474 35.9986 9.42506 35.9986 4.303 35.9986C2.29649 35.9986 0.630743 34.3284 0.627811 32.3227C0.619506 27.2001 0.619506 22.0778 0.627811 16.9557C0.627811 15.0071 2.2276 13.3311 4.16816 13.3069C7.25781 13.2681 10.3489 13.2893 13.4393 13.2849H13.9025C14.0542 12.3286 14.2037 11.3964 14.3502 10.4635C14.7416 7.98139 15.1094 5.49486 15.5294 3.01713C15.8577 1.07731 17.8385 -0.269649 19.7754 0.0498689C21.4163 0.320287 23.0615 0.56652 24.7045 0.823747C24.8122 0.840602 24.92 0.861122 25.0262 0.886771C25.4425 0.98717 25.6858 1.32647 25.6169 1.71415C25.6027 1.811 25.5692 1.90402 25.5185 1.98772C25.4677 2.07143 25.4007 2.14412 25.3214 2.2015C25.2421 2.25888 25.1521 2.29979 25.0567 2.32181C24.9613 2.34384 24.8625 2.34653 24.7661 2.32973C23.4939 2.13553 22.2231 1.93033 20.9553 1.7288C20.4423 1.64746 19.9257 1.55366 19.4083 1.4855C18.2035 1.32721 17.1145 2.26964 16.9071 3.61074C16.4303 6.69452 15.9483 9.77734 15.4612 12.8592C15.4422 12.9772 15.4414 13.0988 15.429 13.263C15.5755 13.271 15.7001 13.2835 15.8262 13.2835C16.9943 13.2835 18.1647 13.3282 19.3299 13.2754C21.5914 13.1736 23.4411 14.9016 23.3773 17.3112C23.3385 18.7703 23.37 20.2308 23.37 21.6906V22.1186C24.1454 22.2461 24.8958 22.3736 25.6484 22.4916C27.6154 22.7987 29.5838 23.0977 31.5507 23.4069C32.7518 23.5953 33.9383 22.784 34.1325 21.5858C34.5619 18.9373 34.9679 16.2852 35.3827 13.6345C35.7491 11.2953 36.1295 8.95826 36.4761 6.61684C36.704 5.07202 35.9016 4.0519 34.3406 3.8108C33.0933 3.61928 31.8475 3.42386 30.6031 3.22453C30.1092 3.14611 29.8461 2.81707 29.9106 2.3737C29.9678 1.97797 30.3137 1.70755 30.768 1.7757C32.2337 1.99556 33.7074 2.17364 35.1511 2.49462C36.6776 2.83319 37.5871 3.87382 37.9359 5.3974C37.9544 5.45378 37.9777 5.50846 38.0055 5.56082L37.9997 6.65275ZM21.8772 24.6476C21.8772 22.1662 21.8428 19.6841 21.8904 17.2042C21.9183 15.7385 20.7743 14.7286 19.4251 14.7374C14.4748 14.7711 9.52448 14.7506 4.57415 14.7514C3.01613 14.7514 2.0781 15.6894 2.0781 17.243C2.0781 22.1687 2.0781 27.0946 2.0781 32.0207C2.0781 33.5941 3.02346 34.538 4.59833 34.538C9.52448 34.538 14.4506 34.5204 19.376 34.549C20.863 34.5578 21.9212 33.4673 21.8919 32.0515C21.8428 29.584 21.8801 27.1166 21.8801 24.6476H21.8772Z" fill="#FEA37B"/>
<path d="M28.1454 18.2521C28.148 17.9724 28.2059 17.696 28.3157 17.4387C28.4254 17.1814 28.5849 16.9483 28.7849 16.7527C28.9849 16.5572 29.2216 16.403 29.4813 16.2992C29.7411 16.1953 30.0187 16.1437 30.2984 16.1474C30.8636 16.1526 31.4041 16.3798 31.8032 16.78C32.2024 17.1802 32.4281 17.7214 32.4317 18.2866C32.4317 19.4591 31.4314 20.4521 30.2633 20.4382C29.9805 20.4343 29.7013 20.3746 29.4416 20.2625C29.182 20.1504 28.9471 19.9881 28.7503 19.785C28.5535 19.5819 28.3988 19.3419 28.295 19.0789C28.1912 18.8158 28.1403 18.5349 28.1454 18.2521ZM30.2772 17.6101C30.1003 17.616 29.9322 17.6891 29.8072 17.8145C29.6823 17.9399 29.6098 18.1081 29.6044 18.2851C29.6073 18.4623 29.6797 18.6313 29.8059 18.7558C29.9321 18.8802 30.1021 18.9502 30.2794 18.9505C30.367 18.9524 30.4541 18.9365 30.5354 18.9037C30.6167 18.8708 30.6905 18.8218 30.7522 18.7595C30.8139 18.6973 30.8623 18.6231 30.8944 18.5415C30.9265 18.46 30.9417 18.3727 30.9389 18.2851C30.9392 18.1083 30.8699 17.9385 30.7462 17.8122C30.6224 17.686 30.454 17.6134 30.2772 17.6101Z" fill="#FEA37B"/>
<path d="M20.8001 8.76561C20.3746 8.76383 19.9593 8.63564 19.6068 8.39734C19.2544 8.15903 18.9807 7.82136 18.8205 7.4272C18.6603 7.03304 18.6209 6.60017 18.7073 6.18356C18.7936 5.76695 19.0018 5.3854 19.3054 5.08735C19.609 4.78931 19.9944 4.58821 20.4125 4.50961C20.8307 4.431 21.2627 4.47844 21.6538 4.64588C22.045 4.81332 22.3775 5.09322 22.6093 5.45004C22.841 5.80685 22.9614 6.22449 22.9554 6.6499C22.9444 7.21445 22.7126 7.75222 22.3096 8.14777C21.9067 8.54333 21.3647 8.76514 20.8001 8.76561ZM21.4831 6.67335C21.4918 6.49653 21.4318 6.32318 21.3157 6.1895C21.1997 6.05582 21.0365 5.97213 20.8602 5.95591C20.6832 5.94412 20.5087 6.00224 20.3741 6.11776C20.2395 6.23328 20.1557 6.39699 20.1405 6.57369C20.1308 6.75059 20.19 6.92438 20.3055 7.05866C20.4211 7.19294 20.5841 7.2773 20.7605 7.29407C21.1064 7.32558 21.4508 7.03245 21.4831 6.67335Z" fill="#FEA37B"/>
<path d="M23.4756 12.171C23.4833 11.6085 23.7116 11.0714 24.1113 10.6755C24.511 10.2796 25.0501 10.0564 25.6127 10.054C26.1753 10.0516 26.7164 10.2701 27.1194 10.6627C27.5225 11.0552 27.7553 11.5902 27.7678 12.1527C27.773 13.3252 26.7829 14.3131 25.6067 14.3102C25.0418 14.3046 24.5018 14.0772 24.1031 13.677C23.7044 13.2768 23.479 12.7359 23.4756 12.171ZM25.6125 11.4873C25.4358 11.4947 25.2684 11.5684 25.1435 11.6938C25.0187 11.8191 24.9457 11.9869 24.9391 12.1637C24.9458 12.3407 25.0198 12.5085 25.1461 12.6327C25.2724 12.7569 25.4413 12.8282 25.6184 12.832C25.7929 12.8256 25.958 12.7515 26.0789 12.6255C26.1998 12.4995 26.267 12.3314 26.2662 12.1568C26.2655 11.9822 26.1968 11.8147 26.0748 11.6898C25.9529 11.5648 25.7871 11.4922 25.6125 11.4873Z" fill="#FEA37B"/>
<path d="M28.5123 2.05494C28.5138 2.15218 28.4954 2.24871 28.4582 2.33858C28.4211 2.42846 28.366 2.50979 28.2962 2.57759C28.2265 2.64539 28.1437 2.69823 28.0528 2.73287C27.9619 2.7675 27.8649 2.78319 27.7677 2.77899C27.5777 2.77594 27.3964 2.69874 27.2625 2.56388C27.1286 2.42903 27.0527 2.24718 27.051 2.05714C27.0432 1.95643 27.0563 1.85518 27.0895 1.75977C27.1226 1.66435 27.1752 1.57682 27.2438 1.50268C27.3124 1.42854 27.3956 1.36938 27.4882 1.32892C27.5807 1.28846 27.6806 1.26758 27.7817 1.26758C27.8827 1.26758 27.9826 1.28846 28.0752 1.32892C28.1677 1.36938 28.2509 1.42854 28.3195 1.50268C28.3882 1.57682 28.4407 1.66435 28.4739 1.75977C28.507 1.85518 28.5201 1.95643 28.5123 2.05714V2.05494Z" fill="#FEA37B"/>
<path d="M4.27214 19.5845C4.27756 19.0199 4.50577 18.4804 4.90711 18.0833C5.30844 17.6862 5.85039 17.4638 6.41497 17.4644C6.97981 17.4717 7.51961 17.6986 7.92001 18.0971C8.32041 18.4956 8.54994 19.0343 8.55999 19.5991C8.56951 20.7717 7.57725 21.7595 6.40104 21.7566C6.11842 21.7545 5.839 21.6966 5.57883 21.5861C5.31867 21.4757 5.0829 21.3149 4.88506 21.1131C4.68723 20.9112 4.53124 20.6723 4.42605 20.4099C4.32087 20.1476 4.26856 19.8671 4.27214 19.5845ZM6.39738 18.9388C6.30751 18.9377 6.21834 18.9547 6.13513 18.9886C6.05192 19.0226 5.97637 19.0729 5.91295 19.1366C5.84953 19.2002 5.79953 19.276 5.7659 19.3593C5.73227 19.4427 5.71571 19.5319 5.71718 19.6218C5.71865 19.7116 5.73813 19.8003 5.77446 19.8825C5.8108 19.9647 5.86326 20.0388 5.92873 20.1003C5.9942 20.1619 6.07135 20.2097 6.15563 20.2409C6.2399 20.2722 6.32958 20.2862 6.41936 20.2821C6.59408 20.2742 6.75884 20.1986 6.87865 20.0712C6.99846 19.9438 7.06389 19.7747 7.06102 19.5998C7.05816 19.4249 6.98724 19.2581 6.86332 19.1346C6.73941 19.0112 6.57226 18.941 6.39738 18.9388Z" fill="#FEA37B"/>
<path d="M15.4337 19.6305C15.4333 19.0658 15.6556 18.5236 16.0524 18.1218C16.4491 17.7199 16.9884 17.4908 17.5531 17.484C18.7256 17.4715 19.7179 18.4587 19.7172 19.6356C19.716 19.9184 19.6588 20.1982 19.5489 20.4587C19.439 20.7192 19.2784 20.9554 19.0767 21.1535C18.8749 21.3516 18.6358 21.5078 18.3733 21.6129C18.1107 21.718 17.83 21.7701 17.5472 21.766C17.2678 21.7661 16.9911 21.7108 16.7332 21.6032C16.4753 21.4957 16.2413 21.338 16.0447 21.1394C15.8481 20.9408 15.6929 20.7052 15.588 20.4462C15.4832 20.1872 15.4307 19.9099 15.4337 19.6305ZM18.2288 19.6422C18.2334 19.5546 18.2197 19.467 18.1887 19.3849C18.1577 19.3029 18.1101 19.2281 18.0487 19.1654C17.9873 19.1028 17.9136 19.0535 17.8322 19.0208C17.7508 18.988 17.6635 18.9726 17.5758 18.9753C17.4883 18.9722 17.4011 18.9867 17.3193 19.0179C17.2375 19.0491 17.1628 19.0964 17.0997 19.157C17.0365 19.2177 16.9862 19.2903 16.9516 19.3708C16.9171 19.4512 16.8991 19.5378 16.8987 19.6254C16.8984 19.8023 16.9672 19.9723 17.0903 20.0993C17.2135 20.2263 17.3814 20.3003 17.5582 20.3054C17.6458 20.3059 17.7326 20.2891 17.8137 20.2561C17.8948 20.223 17.9686 20.1743 18.0309 20.1127C18.0931 20.0511 18.1426 19.9779 18.1766 19.8971C18.2106 19.8164 18.2283 19.7298 18.2288 19.6422Z" fill="#FEA37B"/>
<path d="M15.4337 29.6683C15.4314 29.3855 15.4857 29.1051 15.5934 28.8436C15.7012 28.5822 15.8602 28.3449 16.061 28.1459C16.2619 27.9468 16.5005 27.7899 16.7629 27.6845C17.0253 27.5791 17.3062 27.5272 17.5889 27.532C18.1533 27.5372 18.6928 27.7646 19.0906 28.1649C19.4884 28.5652 19.7125 29.1061 19.7142 29.6705C19.7142 30.843 18.7139 31.8345 17.545 31.8192C16.9815 31.8086 16.4446 31.5774 16.0498 31.1751C15.655 30.7729 15.4338 30.2319 15.4337 29.6683ZM18.2302 29.6837C18.2338 29.5068 18.1679 29.3356 18.0466 29.2068C17.9253 29.078 17.7584 29.0019 17.5816 28.9948C17.4047 28.9954 17.2348 29.0644 17.1076 29.1873C16.9803 29.3102 16.9054 29.4775 16.8986 29.6543C16.896 29.742 16.9109 29.8292 16.9426 29.911C16.9743 29.9927 17.0221 30.0673 17.0831 30.1302C17.1441 30.1931 17.2172 30.2432 17.2979 30.2774C17.3786 30.3116 17.4654 30.3292 17.553 30.3293C17.6407 30.3345 17.7284 30.3217 17.8109 30.2915C17.8933 30.2613 17.9686 30.2145 18.0322 30.1539C18.0957 30.0933 18.1461 30.0203 18.1801 29.9394C18.2142 29.8585 18.2312 29.7714 18.2302 29.6837Z" fill="#FEA37B"/>
<path d="M9.87695 24.3427C9.88663 23.7827 10.1157 23.2488 10.5149 22.856C10.9142 22.4631 11.4516 22.2426 12.0118 22.2419C12.5719 22.2413 13.1099 22.4605 13.51 22.8524C13.9102 23.2443 14.1406 23.7776 14.1516 24.3376C14.1516 25.5226 13.1703 26.5046 11.9971 26.4921C11.4327 26.4825 10.8946 26.2521 10.4982 25.8502C10.1018 25.4484 9.87879 24.9071 9.87695 24.3427ZM12.0139 23.6641C11.8369 23.6672 11.6682 23.7393 11.5437 23.8652C11.4192 23.991 11.3489 24.1606 11.3478 24.3376C11.3463 24.425 11.3624 24.5118 11.3953 24.5928C11.4282 24.6738 11.4771 24.7473 11.5392 24.8089C11.6012 24.8705 11.675 24.9189 11.7562 24.9513C11.8374 24.9836 11.9243 24.9992 12.0117 24.9971C12.0994 25.0002 12.1867 24.9852 12.2683 24.9532C12.35 24.9212 12.4242 24.8728 12.4864 24.811C12.5486 24.7492 12.5975 24.6753 12.63 24.5939C12.6626 24.5125 12.6781 24.4252 12.6757 24.3376C12.6749 24.1612 12.6054 23.9921 12.4817 23.8663C12.3581 23.7405 12.1902 23.6679 12.0139 23.6641Z" fill="#FEA37B"/>
<path d="M6.44132 31.7825C5.26878 31.8022 4.29337 30.8781 4.27285 29.7356C4.25087 28.4898 5.16032 27.5305 6.3739 27.5122C6.94472 27.5038 7.49554 27.7222 7.90541 28.1196C8.31529 28.517 8.5507 29.0608 8.55996 29.6316C8.57462 30.7902 7.6146 31.7627 6.44132 31.7825ZM6.39442 28.9845C6.30733 28.986 6.22138 29.0046 6.14148 29.0393C6.06159 29.074 5.98931 29.1241 5.92878 29.1868C5.86825 29.2494 5.82065 29.3233 5.7887 29.4044C5.75675 29.4854 5.74107 29.572 5.74256 29.6591C5.74405 29.7461 5.76268 29.8321 5.79739 29.912C5.8321 29.9919 5.8822 30.0642 5.94484 30.1247C6.00748 30.1852 6.08143 30.2328 6.16247 30.2648C6.24351 30.2967 6.33004 30.3124 6.41714 30.3109C6.59304 30.3079 6.76053 30.2351 6.88278 30.1086C7.00503 29.9821 7.07201 29.8122 7.069 29.6363C7.06599 29.4604 6.99322 29.2929 6.86672 29.1707C6.74021 29.0484 6.57032 28.9815 6.39442 28.9845Z" fill="#FEA37B"/>
</g>
<defs>
<clipPath id="clip0_171_1012">
<rect width="37.3792" height="36" fill="white" transform="translate(0.620605)"/>
</clipPath>
</defs>
</svg>
