<svg width="24" height="26" viewBox="0 0 24 26" fill="none" xmlns="http://www.w3.org/2000/svg">
<path d="M16.1447 6.05263C16.1447 8.42891 14.2184 10.3553 11.8421 10.3553V11.8553C15.0468 11.8553 17.6447 9.25734 17.6447 6.05263H16.1447ZM11.8421 10.3553C9.46583 10.3553 7.53947 8.42891 7.53947 6.05263H6.03947C6.03947 9.25734 8.6374 11.8553 11.8421 11.8553V10.3553ZM7.53947 6.05263C7.53947 3.67635 9.46583 1.75 11.8421 1.75V0.25C8.6374 0.25 6.03947 2.84793 6.03947 6.05263H7.53947ZM11.8421 1.75C14.2184 1.75 16.1447 3.67635 16.1447 6.05263H17.6447C17.6447 2.84793 15.0468 0.25 11.8421 0.25V1.75ZM8.05263 15.6447H15.6316V14.1447H8.05263V15.6447ZM15.6316 24.25H8.05263V25.75H15.6316V24.25ZM8.05263 24.25C5.67635 24.25 3.75 22.3236 3.75 19.9474H2.25C2.25 23.1521 4.84793 25.75 8.05263 25.75V24.25ZM19.9342 19.9474C19.9342 22.3236 18.0079 24.25 15.6316 24.25V25.75C18.8363 25.75 21.4342 23.1521 21.4342 19.9474H19.9342ZM15.6316 15.6447C18.0079 15.6447 19.9342 17.5711 19.9342 19.9474H21.4342C21.4342 16.7427 18.8363 14.1447 15.6316 14.1447V15.6447ZM8.05263 14.1447C4.84793 14.1447 2.25 16.7427 2.25 19.9474H3.75C3.75 17.5711 5.67635 15.6447 8.05263 15.6447V14.1447Z" fill="black" fill-opacity="0.7"/>
</svg>
